<mxfile host="65bd71144e" modified="2020-11-10T15:15:18.790Z" agent="5.0 (Windows NT 10.0; Win64; x64) AppleWebKit/537.36 (KHTML, like Gecko) Code/1.48.2 Chrome/78.0.3904.130 Electron/7.3.2 Safari/537.36" etag="EToLSSS_7ZRtpVwTWfX8" version="13.6.5">
    <diagram id="8H4sDmrgOp6ytI7XRpxd" name="Page-1">
        <mxGraphModel dx="426" dy="330" grid="1" gridSize="10" guides="1" tooltips="1" connect="1" arrows="1" fold="1" page="1" pageScale="1" pageWidth="827" pageHeight="1169" math="0" shadow="1">
            <root>
                <mxCell id="0"/>
                <mxCell id="1" parent="0"/>
                <mxCell id="Q_9gmtFhEAemjKHO1XHW-1" value="&lt;font face=&quot;Lucida Console&quot;&gt;node&lt;/font&gt;" style="rounded=0;whiteSpace=wrap;html=1;" parent="1" vertex="1">
                    <mxGeometry x="360" y="240" width="40" height="40" as="geometry"/>
                </mxCell>
                <mxCell id="Q_9gmtFhEAemjKHO1XHW-2" value="" style="rounded=0;whiteSpace=wrap;html=1;fillColor=#f5f5f5;strokeColor=#666666;fontColor=#333333;" parent="1" vertex="1">
                    <mxGeometry x="280" y="240" width="40" height="40" as="geometry"/>
                </mxCell>
                <mxCell id="Q_9gmtFhEAemjKHO1XHW-3" value="" style="rounded=0;whiteSpace=wrap;html=1;fillColor=#f5f5f5;strokeColor=#666666;fontColor=#333333;" parent="1" vertex="1">
                    <mxGeometry x="440" y="240" width="40" height="40" as="geometry"/>
                </mxCell>
                <mxCell id="Q_9gmtFhEAemjKHO1XHW-4" value="" style="rounded=0;whiteSpace=wrap;html=1;fillColor=#f5f5f5;strokeColor=#666666;fontColor=#333333;" parent="1" vertex="1">
                    <mxGeometry x="360" y="160" width="40" height="40" as="geometry"/>
                </mxCell>
                <mxCell id="Q_9gmtFhEAemjKHO1XHW-5" value="" style="rounded=0;whiteSpace=wrap;html=1;fillColor=#f5f5f5;strokeColor=#666666;fontColor=#333333;" parent="1" vertex="1">
                    <mxGeometry x="360" y="320" width="40" height="40" as="geometry"/>
                </mxCell>
                <mxCell id="Q_9gmtFhEAemjKHO1XHW-8" value="" style="endArrow=classic;html=1;entryX=0.25;entryY=1;entryDx=0;entryDy=0;exitX=0.25;exitY=0;exitDx=0;exitDy=0;fillColor=#f5f5f5;strokeColor=#666666;" parent="1" source="Q_9gmtFhEAemjKHO1XHW-5" target="Q_9gmtFhEAemjKHO1XHW-1" edge="1">
                    <mxGeometry width="50" height="50" relative="1" as="geometry">
                        <mxPoint x="370" y="310" as="sourcePoint"/>
                        <mxPoint x="420" y="260" as="targetPoint"/>
                    </mxGeometry>
                </mxCell>
                <mxCell id="Q_9gmtFhEAemjKHO1XHW-11" value="" style="endArrow=classic;html=1;entryX=0.75;entryY=0;entryDx=0;entryDy=0;exitX=0.75;exitY=1;exitDx=0;exitDy=0;fillColor=#f5f5f5;strokeColor=#666666;" parent="1" edge="1">
                    <mxGeometry width="50" height="50" relative="1" as="geometry">
                        <mxPoint x="389.8" y="200" as="sourcePoint"/>
                        <mxPoint x="389.8" y="240" as="targetPoint"/>
                    </mxGeometry>
                </mxCell>
                <mxCell id="Q_9gmtFhEAemjKHO1XHW-13" value="" style="endArrow=classic;html=1;entryX=1;entryY=0.75;entryDx=0;entryDy=0;exitX=0;exitY=0.75;exitDx=0;exitDy=0;fillColor=#f5f5f5;strokeColor=#666666;" parent="1" source="Q_9gmtFhEAemjKHO1XHW-3" target="Q_9gmtFhEAemjKHO1XHW-1" edge="1">
                    <mxGeometry width="50" height="50" relative="1" as="geometry">
                        <mxPoint x="360" y="300" as="sourcePoint"/>
                        <mxPoint x="410" y="250" as="targetPoint"/>
                    </mxGeometry>
                </mxCell>
                <mxCell id="Q_9gmtFhEAemjKHO1XHW-14" value="" style="endArrow=classic;html=1;entryX=0;entryY=0.25;entryDx=0;entryDy=0;exitX=1;exitY=0.25;exitDx=0;exitDy=0;fillColor=#f5f5f5;strokeColor=#666666;" parent="1" edge="1">
                    <mxGeometry width="50" height="50" relative="1" as="geometry">
                        <mxPoint x="320" y="249.8" as="sourcePoint"/>
                        <mxPoint x="360" y="249.8" as="targetPoint"/>
                    </mxGeometry>
                </mxCell>
                <mxCell id="2" value="" style="endArrow=classic;html=1;entryX=0.25;entryY=1;entryDx=0;entryDy=0;exitX=0.25;exitY=0;exitDx=0;exitDy=0;" edge="1" parent="1" source="Q_9gmtFhEAemjKHO1XHW-1" target="Q_9gmtFhEAemjKHO1XHW-4">
                    <mxGeometry width="50" height="50" relative="1" as="geometry">
                        <mxPoint x="370" y="240" as="sourcePoint"/>
                        <mxPoint x="420" y="240" as="targetPoint"/>
                    </mxGeometry>
                </mxCell>
                <mxCell id="3" value="" style="endArrow=classic;html=1;entryX=1;entryY=0.75;entryDx=0;entryDy=0;exitX=0;exitY=0.75;exitDx=0;exitDy=0;" edge="1" parent="1" source="Q_9gmtFhEAemjKHO1XHW-1" target="Q_9gmtFhEAemjKHO1XHW-2">
                    <mxGeometry width="50" height="50" relative="1" as="geometry">
                        <mxPoint x="370" y="290" as="sourcePoint"/>
                        <mxPoint x="420" y="240" as="targetPoint"/>
                    </mxGeometry>
                </mxCell>
                <mxCell id="4" value="" style="endArrow=classic;html=1;entryX=0.75;entryY=0;entryDx=0;entryDy=0;exitX=0.75;exitY=1;exitDx=0;exitDy=0;" edge="1" parent="1" source="Q_9gmtFhEAemjKHO1XHW-1" target="Q_9gmtFhEAemjKHO1XHW-5">
                    <mxGeometry width="50" height="50" relative="1" as="geometry">
                        <mxPoint x="370" y="290" as="sourcePoint"/>
                        <mxPoint x="420" y="240" as="targetPoint"/>
                    </mxGeometry>
                </mxCell>
                <mxCell id="5" value="" style="endArrow=classic;html=1;entryX=0;entryY=0.25;entryDx=0;entryDy=0;exitX=1;exitY=0.25;exitDx=0;exitDy=0;" edge="1" parent="1" source="Q_9gmtFhEAemjKHO1XHW-1" target="Q_9gmtFhEAemjKHO1XHW-3">
                    <mxGeometry width="50" height="50" relative="1" as="geometry">
                        <mxPoint x="370" y="290" as="sourcePoint"/>
                        <mxPoint x="420" y="240" as="targetPoint"/>
                    </mxGeometry>
                </mxCell>
                <mxCell id="6" value="&lt;font face=&quot;Lucida Console&quot;&gt;up&lt;/font&gt;" style="text;html=1;strokeColor=none;fillColor=none;align=center;verticalAlign=middle;whiteSpace=wrap;rounded=0;" vertex="1" parent="1">
                    <mxGeometry x="340" y="210" width="40" height="20" as="geometry"/>
                </mxCell>
                <mxCell id="7" value="&lt;font face=&quot;Lucida Console&quot;&gt;down&lt;/font&gt;" style="text;html=1;strokeColor=none;fillColor=none;align=center;verticalAlign=middle;whiteSpace=wrap;rounded=0;" vertex="1" parent="1">
                    <mxGeometry x="394" y="290" width="40" height="20" as="geometry"/>
                </mxCell>
                <mxCell id="8" value="&lt;font face=&quot;Lucida Console&quot;&gt;left&lt;/font&gt;" style="text;html=1;strokeColor=none;fillColor=none;align=center;verticalAlign=middle;whiteSpace=wrap;rounded=0;" vertex="1" parent="1">
                    <mxGeometry x="320" y="270" width="40" height="20" as="geometry"/>
                </mxCell>
                <mxCell id="9" value="&lt;font face=&quot;Lucida Console&quot;&gt;right&lt;/font&gt;" style="text;html=1;strokeColor=none;fillColor=none;align=center;verticalAlign=middle;whiteSpace=wrap;rounded=0;" vertex="1" parent="1">
                    <mxGeometry x="400" y="230" width="40" height="20" as="geometry"/>
                </mxCell>
            </root>
        </mxGraphModel>
    </diagram>
</mxfile>